<?xml version="1.0"?>
<!DOCTYPE svg PUBLIC "-//W3C//DTD SVG 1.1//EN" "http://www.w3.org/Graphics/SVG/1.1/DTD/svg11.dtd">
<svg version="1.1" xmlns="http://www.w3.org/2000/svg" width="60px" height="480px" viewBox="0 0 120 960">
<defs>
<style type="text/css"><![CDATA[
path, rect, polygon	{ fill: #7e7e7e; }
]]></style>
</defs>


<g id="house">
<path d="M85.3,870.4c0-0.8-0.6-1.4-1.4-1.4h-6.1c-0.8,0-1.4,0.6-1.4,1.4v2.7l8.9,6.9V870.4z"/>
<path d="M110.4,939.4H105h-7.1v-31.3v-5.5v-1.9h8.7c0.9,0,1.2-1.1,0.5-1.6l-1.6-1.1l-17.3-13.4v0l-21.8-16.9c-1.4-1-3.3-1-4.7,0L22.6,898l-1.6,1.1c-0.7,0.5-0.4,1.6,0.5,1.6h8.7v7.4h-3.5c0,0-1.6-1.2-3.3-1.2c-1.8,0-2.3,0.6-3.3,1.2L2.7,920.6c-0.4,0.2-0.3,0.8,0.2,0.8h4.9v18H2.6c-0.8,0-1.4,0.6-1.4,1.4v0.8c0,0.8,0.6,1.4,1.4,1.4h107.8c0.8,0,1.4-0.6,1.4-1.4v-0.8C111.8,940,111.2,939.4,110.4,939.4z M12.6,939.4c0-4.7,0-9.5,0-14.2c1.7-1.8,3.7-3,5.8-3.8c1.3-0.4,2.6-0.7,4-0.8c0.4,0,0.9,0,1.3,0c1.4,0.1,2.7,0.3,4,0.8c2.1,0.7,4.2,2,5.8,3.8c0,4.7,0,9.5,0,14.2H12.6z M35.2,921.5h-2.9l-9-6.1l-9,6.1h-2.9c-0.3,0-0.5-0.4-0.3-0.6l11.4-8.3c0.4-0.4,1-0.4,1.4,0l11.4,8.3C35.7,921.1,35.5,921.5,35.2,921.5z M46.2,932.7c0,0.5-0.4,0.9-0.9,0.9h-4c-0.5,0-0.9-0.4-0.9-0.9v-2.8c0-0.5,0.4-0.9,0.9-0.9h4c0.5,0,0.9,0.4,0.9,0.9V932.7z M46.2,926.6c0,0.5-0.4,0.9-0.9,0.9h-4c-0.5,0-0.9-0.4-0.9-0.9v-2.8c0-0.5,0.4-0.9,0.9-0.9h4c0.5,0,0.9,0.4,0.9,0.9V926.6z M45.4,902.7v-2.4c0-0.5,0.4-0.8,0.8-0.8h3.5c0.5,0,0.8,0.4,0.8,0.8v2.4c0,0.5-0.4,0.8-0.8,0.8h-3.5C45.8,903.5,45.4,903.1,45.4,902.7z M45.4,897.3v-2.4c0-0.5,0.4-0.8,0.8-0.8h3.5c0.5,0,0.8,0.4,0.8,0.8v2.4c0,0.5-0.4,0.8-0.8,0.8h-3.5C45.8,898.2,45.4,897.8,45.4,897.3zM53.4,932.7c0,0.5-0.4,0.9-0.9,0.9h-4c-0.5,0-0.9-0.4-0.9-0.9v-2.8c0-0.5,0.4-0.9,0.9-0.9h4c0.5,0,0.9,0.4,0.9,0.9V932.7zM53.4,926.6c0,0.5-0.4,0.9-0.9,0.9h-4c-0.5,0-0.9-0.4-0.9-0.9v-2.8c0-0.5,0.4-0.9,0.9-0.9h4c0.5,0,0.9,0.4,0.9,0.9V926.6zM56.9,902.7c0,0.5-0.4,0.8-0.8,0.8h-3.5c-0.5,0-0.8-0.4-0.8-0.8v-2.4c0-0.5,0.4-0.8,0.8-0.8H56c0.5,0,0.8,0.4,0.8,0.8V902.7zM56.9,897.3c0,0.5-0.4,0.8-0.8,0.8h-3.5c-0.5,0-0.8-0.4-0.8-0.8v-2.4c0-0.5,0.4-0.8,0.8-0.8H56c0.5,0,0.8,0.4,0.8,0.8V897.3zM51.1,887l-7.9,5.9h-2.5c-0.3,0-0.4-0.4-0.2-0.6l10-7.9c0.3-0.3,0.9-0.3,1.2,0l10,7.9c0.2,0.2,0.1,0.6-0.2,0.6H59L51.1,887zM67,932.7c0,0.5-0.4,0.9-0.9,0.9h-4c-0.5,0-0.9-0.4-0.9-0.9v-2.8c0-0.5,0.4-0.9,0.9-0.9h4c0.5,0,0.9,0.4,0.9,0.9V932.7z M67,926.6c0,0.5-0.4,0.9-0.9,0.9h-4c-0.5,0-0.9-0.4-0.9-0.9v-2.8c0-0.5,0.4-0.9,0.9-0.9h4c0.5,0,0.9,0.4,0.9,0.9V926.6z M74.2,932.7c0,0.5-0.4,0.9-0.9,0.9h-4c-0.5,0-0.9-0.4-0.9-0.9v-2.8c0-0.5,0.4-0.9,0.9-0.9h4c0.5,0,0.9,0.4,0.9,0.9V932.7z M74.2,926.6c0,0.5-0.4,0.9-0.9,0.9h-4c-0.5,0-0.9-0.4-0.9-0.9v-2.8c0-0.5,0.4-0.9,0.9-0.9h4c0.5,0,0.9,0.4,0.9,0.9V926.6z M76.3,902.7c0,0.5-0.4,0.8-0.8,0.8H72c-0.5,0-0.8-0.4-0.8-0.8v-2.4c0-0.5,0.4-0.8,0.8-0.8h3.5c0.5,0,0.8,0.4,0.8,0.8V902.7z M76.3,897.3c0,0.5-0.4,0.8-0.8,0.8H72c-0.5,0-0.8-0.4-0.8-0.8v-2.4c0-0.5,0.4-0.8,0.8-0.8h3.5c0.5,0,0.8,0.4,0.8,0.8V897.3z M69,892.9h-2.5c-0.3,0-0.4-0.4-0.2-0.6l10-7.9c0.3-0.3,0.9-0.3,1.2,0l10,7.9c0.2,0.2,0.1,0.6-0.2,0.6h-2.5l-7.9-5.9L69,892.9z M82.6,894.9v2.4c0,0.5-0.4,0.8-0.8,0.8h-3.5c-0.5,0-0.8-0.4-0.8-0.8v-2.4c0-0.5,0.4-0.8,0.8-0.8h3.5C82.3,894.1,82.6,894.5,82.6,894.9zM77.5,902.7v-2.4c0-0.5,0.4-0.8,0.8-0.8h3.5c0.5,0,0.8,0.4,0.8,0.8v2.4c0,0.5-0.4,0.8-0.8,0.8h-3.5C77.9,903.5,77.5,903.2,77.5,902.7z M89.1,939.5h-8.3c0-4.9,0-9.7,0-14.6c2.3-2.4,6.1-2.4,8.3,0C89.1,929.7,89.1,934.6,89.1,939.5z"/>
<path d="M17.5,925.2h-2.2c-0.3,0-0.5,0.2-0.5,0.5v1.5c0,0.3,0.2,0.5,0.5,0.5h2.2c0.3,0,0.5-0.2,0.5-0.5v-1.5C18,925.5,17.8,925.2,17.5,925.2z"/>
<path d="M22.1,925.2h-2.2c-0.3,0-0.5,0.2-0.5,0.5v1.5c0,0.3,0.2,0.5,0.5,0.5h2.2c0.3,0,0.5-0.2,0.5-0.5v-1.5C22.6,925.5,22.4,925.2,22.1,925.2z"/>
<path d="M26.7,925.2h-2.2c-0.3,0-0.5,0.2-0.5,0.5v1.5c0,0.3,0.2,0.5,0.5,0.5h2.2c0.3,0,0.5-0.2,0.5-0.5v-1.5C27.3,925.5,27,925.2,26.7,925.2z"/>
<path d="M31.4,925.2h-2.2c-0.3,0-0.5,0.2-0.5,0.5v1.5c0,0.3,0.2,0.5,0.5,0.5h2.2c0.3,0,0.5-0.2,0.5-0.5v-1.5C31.9,925.5,31.7,925.2,31.4,925.2z"/>
</g>

<g id="tree">
<path d="M55.9,744c1.3,2.6,3.4,7.9,1.1,10.8c-2.1,0.1-4,0-4.9-1C51.6,748.8,54,746.7,55.9,744"/>
<path d="M38.4,746.8c2.4,1.1,8.2,2.3,8.4,5.6c0.1,2.1-1.1,3.5-3.1,3.5C39.7,755.9,39.6,750.4,38.4,746.8z"/>
<path d="M70.2,750.3c0.4,2.6-1,8.9-3.8,9.4c-1.9,0.3-3.6-0.7-3.8-2.8C62.1,752.7,67.6,752.4,70.2,750.3z"/>
<path d="M41.2,757.6c2.1,2.2,4,6.2,3.1,10.1c-1.5,1.4-4.4,1.2-5.6-0.4C37.9,763.6,40.1,760.7,41.2,757.6z"/>
<path d="M47.5,758c3.1-0.4,9.8,0.2,10.1,3.5c0.2,1.6-1.1,2.9-2.8,3.8C50.9,764.3,49.5,760.9,47.5,758z"/>
<path d="M62.9,761.5c-0.7,7.1-5.5,13.2-6.3,21.3c5.9-0.2,10-5.2,14.3-8c1.3,0.3,1.7,1.6,2.1,2.8c-2.5,2.4-6.2,3.2-8.7,5.6c-3.3,3-6.6,7.7-5.9,14.7c0.3,2.7,1.8,6.7,2.1,10.5c0.2,2.2-0.4,4.9,0,6.3c0.5,1.9,2.1,2.2,3.1,3.8c-4.8,0.6-12,0.6-16.8,0c0.8-2,3.7-1.9,4.9-3.5c1.5-14-6-20.8-18.9-19.2c-0.4-1.8,2-2.2,3.5-2.8c3-1.1,7.7-2.2,11.9-0.7c-2.1-7.4-6.3-13.2-10.8-18.5c-1.3-1.5-3.8-2.9-3.5-5.2c2.1-1.9,3.1,1,4.2,2.1c1.2,1.2,2.7,2.3,3.8,3.5c2.5,2.6,4.7,5.5,7.7,7c7.2-3.3,7.9-13.1,11.2-20.3C62,760.5,62.2,761.2,62.9,761.5z"/>
<path d="M33.1,762.9c0.2,9.6-9.9,1.6-10.1-1.4C26.3,760.8,31.4,760.8,33.1,762.9z"/>
<path d="M68.5,763.9c3,5-1.6,14.7-5.9,8.4C62.7,767.7,66.2,766.4,68.5,763.9z"/>
<path d="M49.6,766c1.9,2.5,3.9,6.8,2.4,10.5C44,779.7,46.8,769,49.6,766z"/>
<path d="M83.1,767.8c-1.3,1.9-3.4,8.1-6.6,8c-2.1,0-3.5-2.2-3.1-4.2C74,768.4,79.3,768.6,83.1,767.8z"/>
<path d="M32.8,772c1.2,1.6,0.6,3.9-0.3,5.2c-4.2,1-7.3-1.7-10.1-3.1C24.9,772.6,29.3,770.3,32.8,772z"/>
<path d="M83.5,786c-3.6,1-8.2,0-10.1-1.8C72.9,774.9,81.8,782.1,83.5,786z"/>
<path d="M27.5,781.4c1.3,1.4,1.8,4.1,0.4,5.6c-3.5,0.9-7.3-0.2-9.8-1.4C20.5,783.6,22.8,781.3,27.5,781.4z"/>
<path d="M41.9,784.9c-1,8.9-9.7,0.4-10.1-2.5C35.2,781.8,40.3,782.5,41.9,784.9z"/>
<path d="M74,793.3c-2.9-0.1-9-1.8-9.1-4.9c-0.1-2.4,2.8-4.3,5.2-2.8C72.5,787,72.6,791.4,74,793.3z"/>
<path d="M30,791.9c5.3,4.9-2.9,7.7-8.7,5.9C23.5,795.3,25,791.9,30,791.9z"/>
<path d="M71.6,798.9c-1,0.9-2.1,2.3-3.5,3.1c-2.6,1.5-8.1,2.7-7.3-2.1C61.4,795.8,68.4,797.8,71.6,798.9z"/>
<path d="M35.2,808.4c-1.3-2.8-1.2-9.3,1.4-10.5C45.1,798,38.4,806.5,35.2,808.4z"/>
<path d="M19.5,817.2c4.5-1.6,6.8-1.3,9.8-0.4c6.6,2,11.1,3,18,1.2c9-2.4,15.1-2.4,23.4,1.8c4.7,2.4,9.3,4.5,13.9,6.5H4.5C4.5,826.3,14.6,819,19.5,817.2z"/>
</g>

<g id="roller">
<path d="M78.5,641.9c0-3.5-2.8-6.3-6.3-6.3h-3.6v-5.8c0-0.4-0.3-0.8-0.8-0.8H8.7c-0.4,0-0.8,0.3-0.8,0.8v5.8H5.3c-1.6,0-2.8,1.3-2.8,2.8c0,1.6,1.3,2.8,2.8,2.8h2.6v6.7c0,0.4,0.3,0.8,0.8,0.8h59.1c0.4,0,0.8-0.3,0.8-0.8v-6.7h3.4c0.8,0,1.5,0.7,1.5,1.5l0,5.2c0,1.5-1,2.8-2.4,3.3l-26.6,10.3c-5.1,1.6-8.7,6.4-8.7,12h-2.2c-0.5,0-0.9,0.4-0.9,0.9v20.6c0,3.3,2.7,5.9,5.9,5.9s5.9-2.7,5.9-5.9v-20.6c0-0.5-0.4-0.9-0.9-0.9h-2.2v-0.5c0-2.8,1.9-5.3,4.5-6l25.9-10.3c3.9-1.2,6.8-4.9,6.8-9.2L78.5,641.9z M65.4,634.8c0,0.4-0.3,0.8-0.8,0.8H11.9c-0.4,0-0.8-0.3-0.8-0.8v-1.9c0-0.4,0.3-0.8,0.8-0.8h52.7c0.4,0,0.8,0.3,0.8,0.8L65.4,634.8L65.4,634.8z"/>
</g>

<g id="fireplace">
<path d="M53.9,552.1c-1.9-4.5,0.3-5.2,3.1-9.1c2.8-3.9,1.8-10.1-5.5-11.2c0.9,1.7,2.7,4.6-3.3,9.5c-2.7,2.5-2.4,5.4-0.8,7.6C48.9,550.7,51.7,551.1,53.9,552.1z"/>
<path d="M55.4,551.6c0.6-2,7.9-0.3,4.1-10.1c-0.7,2.3-2.4,3.9-3.7,5.6C54.4,548.8,54.8,549.9,55.4,551.6z"/>
<path d="M86.6,570.5v-50.1l-6.2-5.4v-6.9H27.3v6.9l-6.9,5.4v50.1H15v8.5H92v-8.5H86.6z M80.5,564.3H27.3v-37c0,0,10.9-3.7,26.6-3.7c15.7,0,26.5,3.7,26.5,3.7V564.3z"/>
<path d="M66.9,562c-0.3,0-25.7,0-26.1,0c-0.4,0-0.5-0.3-0.5-0.5c-0.1-0.7-0.2-2.1-0.2-3.7c0-1.8,0.3-3.6,0.3-3.7c0-0.3,0.2-0.6,0.6-0.6s16.4,0,16.4,0l3.3-3.1l1.6,1.3l-1.8,1.8c0,0,5.6,0,6.1,0c0.5,0,0.7,0.4,0.7,0.7c0,0.3,0.4,1.8,0.4,3.5c0,1.6-0.3,3.7-0.4,3.9C67.4,561.9,67.2,562,66.9,562z"/>
</g>

<g id="shower">
<path d="M38.6,462.8c-0.5-0.7-1-2.1-1.8-2.4c-1-0.3-2.2-0.2-3.4-0.1c-0.5,0.5-1.9,2.4-1.2,5.9c-0.8,0.2-2,0.6-2.2,1.4c-0.1,0.3-0.1,0.7,0.4,1.2l0.1,0.1l0.1,0c0,0,1.1,0.4,2.3,0.5c1.4,0.2,2.5-0.1,3.3-0.8l0,0c0,0,0.1-0.1,0.1-0.1c0,0,0,0,0,0l0.1-0.1l0,0c1.3-1.3,1.8-2.2,1.9-3.7c0.1-0.5,0.4-1,0.8-1.4C39,463.2,38.8,463,38.6,462.8z"/>
<path d="M82.5,462.8c0.5-0.7,1-2.1,1.8-2.4c1-0.3,2.2-0.2,3.3-0.1c0.5,0.5,1.9,2.4,1.2,5.9c0.8,0.2,2,0.6,2.2,1.4c0.1,0.3,0.1,0.7-0.4,1.2l-0.1,0.1l-0.1,0c0,0-1.1,0.4-2.3,0.5c-1.4,0.2-2.5-0.1-3.3-0.8l0,0c0,0-0.1-0.1-0.1-0.1c0,0,0,0,0,0l-0.1-0.1l0,0c-1.3-1.3-1.8-2.2-1.9-3.7c-0.1-0.5-0.4-1-0.8-1.4C82.2,463.2,82.3,463,82.5,462.8z"/>
<path d="M91.1,436.1c-12.3,1.6-17.7,3.3-25.8,3.3c-0.2,0-0.4,0-0.5,0c-0.2,0-0.3,0-0.5,0c-8.1,0-18.5-8.5-34-10.5c-10.6-1.3-16.5,0.8-16.5,0.8s4.5,6.9,4.5,14.3s8.2,19.3,18.9,19.3c10.7,0,20.5-0.8,27.1-0.8c0.2,0,0.4,0,0.5-0.1c0.2,0,0.3,0.1,0.5,0.1c6.6,0,8.7,0.8,19.4,0.8c10.7,0,15.8-9.4,15.8-15.3s3.5-10.3,3.5-10.3S102.2,435.3,91.1,436.1z"/>
<path style="fill: none" stroke="#7e7e7e" stroke-width="3" stroke-linecap="round" stroke-miterlimit="10" d="M105.4,433.9c0,0-2-2.4-13.4-1.7c-12.6,1.6-18.2,3.4-26.5,3.4c-0.2,0-0.4,0-0.5,0c-0.2,0-0.4,0-0.5,0c-8.3,0-19-8.7-34.9-10.8c-10.8-1.4-16.9,0.8-16.9,0.8"/>
<path style="fill: none" stroke="#7e7e7e" stroke-width="3" stroke-linecap="round" stroke-linejoin="round" stroke-miterlimit="10" d="M93.7,430.9c0-48.1,0-23.6,0-38.7c0-15.2-16-14.3-18.6-4"/>
<rect x="61.8" y="393" transform="matrix(-0.9189 -0.3946 0.3946 -0.9189 -16.3195 785.5633)" width="21.6" height="3"/>
<path d="M63.4,395.4c-0.2,0.2-0.5,0.2-0.8,0l0,0c-0.2-0.2-0.2-0.5,0-0.8l0.9-1c0.2-0.2,0.5-0.2,0.8,0l0,0c0.2,0.2,0.2,0.5,0,0.8L63.4,395.4z"/>
<path d="M61,398.6c-0.2,0.2-0.5,0.3-0.8,0.1l0,0c-0.2-0.2-0.3-0.5-0.1-0.8l0.8-1c0.2-0.2,0.5-0.3,0.8-0.1l0,0c0.2,0.2,0.3,0.5,0.1,0.8L61,398.6z"/>
<path d="M58.6,401.7c-0.2,0.3-0.5,0.3-0.8,0.2l0,0c-0.3-0.2-0.3-0.5-0.2-0.8l0.7-1.1c0.2-0.3,0.5-0.3,0.8-0.2l0,0c0.3,0.2,0.3,0.5,0.2,0.8L58.6,401.7z"/>
<path d="M79.4,402.1c-0.1,0.3-0.4,0.5-0.7,0.4l0,0c-0.3-0.1-0.5-0.4-0.4-0.7l0.3-1.3c0.1-0.3,0.4-0.5,0.7-0.4l0,0c0.3,0.1,0.5,0.4,0.4,0.7L79.4,402.1z"/>
<path d="M78.8,406c0,0.3-0.3,0.5-0.6,0.5l0,0c-0.3,0-0.5-0.3-0.5-0.6l0.2-1.3c0-0.3,0.3-0.5,0.6-0.5l0,0c0.3,0,0.5,0.3,0.5,0.6L78.8,406z"/>
<path d="M78.3,410c0,0.3-0.3,0.5-0.6,0.5l0,0c-0.3,0-0.5-0.3-0.5-0.6l0.1-1.3c0-0.3,0.3-0.5,0.6-0.5l0,0c0.3,0,0.5,0.3,0.5,0.6L78.3,410z"/>
<path d="M77.2,401.1c-0.1,0.3-0.4,0.4-0.7,0.3l0,0c-0.3-0.1-0.4-0.4-0.3-0.7l0.4-1.2c0.1-0.3,0.4-0.4,0.7-0.4l0,0c0.3,0.1,0.4,0.4,0.3,0.7L77.2,401.1z"/>
<path d="M76.2,405c-0.1,0.3-0.4,0.5-0.7,0.4l0,0c-0.3-0.1-0.5-0.4-0.4-0.7l0.3-1.3c0.1-0.3,0.4-0.5,0.7-0.4l0,0c0.3,0.1,0.5,0.4,0.4,0.7L76.2,405z"/>
<path d="M75.3,408.8c0,0.3-0.3,0.5-0.6,0.5l0,0c-0.3,0-0.5-0.3-0.5-0.6l0.2-1.3c0.1-0.3,0.3-0.5,0.6-0.5l0,0c0.3,0,0.5,0.3,0.5,0.6L75.3,408.8z"/>
<path d="M74.8,400.2c-0.1,0.3-0.4,0.4-0.7,0.3l0,0c-0.3-0.1-0.4-0.4-0.3-0.7l0.5-1.2c0.1-0.3,0.4-0.4,0.7-0.3l0,0c0.3,0.1,0.4,0.4,0.3,0.7L74.8,400.2z"/>
<path d="M73.6,403.9c-0.1,0.3-0.4,0.4-0.7,0.4l0,0c-0.3-0.1-0.4-0.4-0.4-0.7l0.4-1.2c0.1-0.3,0.4-0.4,0.7-0.4l0,0c0.3,0.1,0.4,0.4,0.4,0.7L73.6,403.9z"/>
<path d="M72.5,407.7c-0.1,0.3-0.4,0.5-0.7,0.4l0,0c-0.3-0.1-0.5-0.4-0.4-0.7l0.3-1.3c0.1-0.3,0.4-0.5,0.7-0.4l0,0c0.3,0.1,0.5,0.4,0.4,0.7L72.5,407.7z"/>
<path d="M72.5,399.2c-0.1,0.3-0.5,0.4-0.7,0.3l0,0c-0.3-0.1-0.4-0.5-0.3-0.7l0.6-1.2c0.1-0.3,0.5-0.4,0.7-0.3l0,0c0.3,0.1,0.4,0.5,0.3,0.7L72.5,399.2z"/>
<path d="M71.1,402.9c-0.1,0.3-0.4,0.4-0.7,0.3l0,0c-0.3-0.1-0.4-0.4-0.3-0.7l0.5-1.2c0.1-0.3,0.4-0.4,0.7-0.3l0,0c0.3,0.1,0.4,0.4,0.3,0.7L71.1,402.9z"/>
<path d="M69.6,406.5c-0.1,0.3-0.4,0.4-0.7,0.4l0,0c-0.3-0.1-0.4-0.4-0.4-0.7L69,405c0.1-0.3,0.4-0.4,0.7-0.4l0,0c0.3,0.1,0.4,0.4,0.4,0.7L69.6,406.5z"/>
<path d="M70.1,398.3c-0.1,0.3-0.5,0.4-0.7,0.2l0,0c-0.3-0.1-0.3-0.5-0.2-0.7l0.6-1.1c0.1-0.3,0.5-0.4,0.7-0.2l0,0c0.3,0.1,0.4,0.5,0.2,0.7L70.1,398.3z"/>
<path d="M68.5,401.8c-0.1,0.3-0.5,0.4-0.7,0.3l0,0c-0.3-0.1-0.4-0.4-0.3-0.7l0.5-1.2c0.1-0.3,0.4-0.4,0.7-0.3l0,0c0.3,0.1,0.4,0.4,0.3,0.7L68.5,401.8z"/>
<path d="M66.8,405.4c-0.1,0.3-0.4,0.4-0.7,0.3l0,0c-0.3-0.1-0.4-0.4-0.3-0.7l0.5-1.2c0.1-0.3,0.4-0.4,0.7-0.3l0,0c0.3,0.1,0.4,0.4,0.3,0.7L66.8,405.4z"/>
<path d="M67.8,397.3c-0.2,0.2-0.5,0.3-0.8,0.2l0,0c-0.2-0.2-0.3-0.5-0.2-0.8l0.7-1.1c0.2-0.3,0.5-0.3,0.8-0.2l0,0c0.3,0.2,0.3,0.5,0.2,0.8L67.8,397.3z"/>
<path d="M65.9,400.8c-0.1,0.3-0.5,0.4-0.7,0.2l0,0c-0.3-0.1-0.4-0.5-0.2-0.7l0.6-1.1c0.1-0.3,0.5-0.4,0.7-0.2l0,0c0.3,0.1,0.4,0.5,0.2,0.7L65.9,400.8z"/>
<path d="M64,404.2c-0.1,0.3-0.4,0.4-0.7,0.3l0,0c-0.3-0.1-0.4-0.4-0.3-0.7l0.5-1.2c0.1-0.3,0.4-0.4,0.7-0.3l0,0c0.3,0.1,0.4,0.4,0.3,0.7L64,404.2z"/>
<path d="M65.4,396.4c-0.2,0.2-0.5,0.3-0.8,0.1l0,0c-0.2-0.2-0.3-0.5-0.1-0.8l0.8-1c0.2-0.2,0.5-0.3,0.8-0.1l0,0c0.2,0.2,0.3,0.5,0.1,0.8L65.4,396.4z"/>
<path d="M63.3,399.7c-0.2,0.3-0.5,0.3-0.8,0.2l0,0c-0.3-0.2-0.3-0.5-0.2-0.8l0.7-1.1c0.2-0.3,0.5-0.3,0.8-0.2l0,0c0.3,0.2,0.3,0.5,0.2,0.8L63.3,399.7z"/>
<path d="M61.2,403.1c-0.1,0.3-0.5,0.4-0.7,0.2l0,0c-0.3-0.1-0.4-0.5-0.2-0.7l0.6-1.2c0.1-0.3,0.5-0.4,0.7-0.2l0,0c0.3,0.1,0.4,0.5,0.2,0.7L61.2,403.1z"/>
<path d="M77.7,388.8l-0.9-0.4L77,388c0.4-0.9,0.7-1.6,1-2.1c-0.5-0.3-1-0.6-1.5-1c0,0,0,0-0.1,0c0,0,0,0-0.1,0c-0.1-0.1-0.1-0.1-0.2-0.2c-0.1-0.1-0.2-0.2-0.4-0.3c-0.4,0.7-0.8,1.6-1.3,2.6l-0.2,0.4l1.2,0.5l-2.4-1c-2.4-1-5.2,0.1-6.3,2.5l13.3,5.7C81.3,392.6,80.1,389.8,77.7,388.8z"/>
</g>

<g id="electro">
<path d="M67.9,302.3c-5.2,0-9.8,2.1-13.2,5.5L31,331c-2.5,2.5-6.1,4.1-9.9,4.1c-7.7,0-14-6.3-14-14c0-7.7,6.3-14,14-14c3.9,0,7.4,1.6,9.9,4.1l2.4,2.4c-0.4,0.9-0.6,1.9-0.6,2.9c0,1.9,0.8,3.7,2.1,5l9.9-9.9c-1.3-1.3-3-2.1-5-2.1c-1.1,0-2.2,0.3-3.2,0.8l-2.3-2.3c-3.4-3.4-8.1-5.5-13.2-5.5c-10.3,0-18.7,8.4-18.7,18.7c0,10.3,8.4,18.7,18.7,18.7c5.2,0,9.8-2.1,13.2-5.5L58,311.1c2.5-2.5,6.1-4.1,9.9-4.1c7.7,0,14,6.3,14,14c0,7.7-6.3,14-14,14c-2.8,0-5.3-0.8-7.5-2.2c0.3-0.8,0.5-1.6,0.5-2.5c0-1.9-0.8-3.7-2.1-5l-1.8,1.8l-4.7-4.7l-1.7,1.7l4.7,4.7l-3,3l-4.7-4.7l-1.7,1.7l4.7,4.7l-1.8,1.8c1.3,1.3,3,2.1,5,2.1c1.3,0,2.5-0.3,3.5-0.9c3,2.1,6.6,3.3,10.6,3.3c10.3,0,18.7-8.4,18.7-18.7C86.6,310.7,78.2,302.3,67.9,302.3z"/>
</g>

<g id="interior">
<path d="M89.9,144.7h-2.7c-1.5,0.8-3.1,1.3-4.9,1.3c-1.8,0-3.5-0.5-4.9-1.3h-3c-1.4,0.8-3.3,1.3-5.1,1.3s-3.5-0.5-4.9-1.3h-2.7v2.8c1,1.6,2.1,3.1,2.1,5.1c0,2-1.1,3.2-2.1,4.8v2.8c1,1.6,2.1,2.8,2.1,4.8c0,2-1.1,3.5-2.1,5v2.8h2.8c1.5-0.9,2.9-1.4,4.8-1.4c1.9,0,3.6,0.5,5.1,1.4h3c1.5-0.9,3-1.4,4.9-1.4c1.9,0,3.3,0.5,4.8,1.4h2.8V170c-0.9-1.5-1.9-3.1-1.9-5c0-1.9,1-3.3,1.9-4.8v-2.8c-0.9-1.5-1.9-2.9-1.9-4.8c0-1.9,1-3.5,1.9-5.1V144.7z M84.7,167.7H66.9v-17.8h17.8V167.7z"/>
<path d="M80.2,195.5"/>
<path d="M59.3,205.5c0.4,0,0.8-0.4,0.8-0.8v-18.6c0-0.4-0.4-0.8-0.8-0.8H26.2c-0.4,0-0.8,0.4-0.8,0.8v7.4c0,0.4,0.4,0.8,0.8,0.8c0,0,1.1,0,2.3,0.7c2.6,1.4,2.5,4.5,2.5,4.5c0,0.4,0,1.2,0,1.6v3.6c0,0.4,0.4,0.8,0.8,0.8H59.3z"/>
<path d="M29.4,188.5"/>
<path d="M29.7,223.4v-22.8c0,0,0.2-3.4-2.2-4.5c-2.4-1.1-3.7-0.4-3.9-0.3c-0.2,0.1-1.6,0.7-2.1,2.1c-0.6,1.4-0.3,1.6-0.3,2.4c0.1,0.9,0.6,1.7,0.8,1.8c0.2,0.1,1.6,2.2,1.9,2.5c0.3,0.3,1.3,2.4,1.3,2.7c0,0.3,0,16.1,0,16.1s0.1,0.7,2.2,0.7S29.7,223.4,29.7,223.4z"/>
<path d="M60.1,207.5c0-0.4-0.4-0.8-0.8-0.8H31.8c-0.4,0-0.8,0.4-0.8,0.8v4.1c0,0.4,0.4,0.8,0.8,0.8h27.5c0.4,0,0.8-0.4,0.8-0.8V207.5L60.1,207.5z"/>
<path d="M31,214.8"/>
<path d="M31,214.5c0-0.4,0.4-0.8,0.8-0.8h57.8c0.4,0,0.8,0.4,0.8,0.8v6.3c0,0.4-0.4,0.8-0.8,0.8H31.8c-0.4,0-0.8-0.4-0.8-0.8L31,214.5z"/>
<path d="M62.1,205.5c-0.4,0-0.8-0.4-0.8-0.8v-18.6c0-0.4,0.4-0.8,0.8-0.8h33.1c0.4,0,0.8,0.4,0.8,0.8v7.4c0,0.4-0.4,0.8-0.8,0.8c0,0-1,0-2.3,0.7c-2.6,1.4-2.5,4.5-2.5,4.5c0,0.4,0,1.2,0,1.6v3.6c0,0.4-0.4,0.8-0.8,0.8H62.1z"/>
<path d="M91.6,223.4v-22.8c0,0-0.2-3.4,2.2-4.5c2.4-1.1,3.7-0.4,3.9-0.3c0.2,0.1,1.6,0.7,2.1,2.1c0.6,1.4,0.3,1.6,0.3,2.4c-0.1,0.9-0.6,1.7-0.8,1.8s-1.6,2.2-1.9,2.5c-0.3,0.3-1.3,2.4-1.3,2.7c0,0.3,0,16.1,0,16.1s-0.1,0.7-2.2,0.7C91.9,224.1,91.6,223.4,91.6,223.4z"/>
<path d="M61.2,207.5c0-0.4,0.4-0.8,0.8-0.8h27.5c0.4,0,0.8,0.4,0.8,0.8v4.1c0,0.4-0.4,0.8-0.8,0.8H62.1c-0.4,0-0.8-0.4-0.8-0.8V207.5L61.2,207.5z"/>
<polygon points="22,223.6 7.3,223.6 8.1,221.6 21.2,221.6"/>
<rect x="13.7" y="174" width="2" height="48.5"/>
<polygon points="25.7,177.5 3.6,177.5 7.3,155.9 22,155.9"/>
</g>

<g id="project">
<path d="M47.1,82.9L27.4,61.6c-0.3-0.3-0.7-0.4-1.1-0.3c-0.4,0.1-0.6,0.5-0.7,0.9l-1.2,20.2c0,0.5,0.3,0.9,0.7,1c0.1,0,0.1,0,0.2,0l20.8,1.2c0.4,0,0.8-0.2,1-0.6C47.4,83.7,47.3,83.2,47.1,82.9z M38.3,82.4c-0.2,0.5-0.7,0.8-1.2,0.7c-0.5-0.2-0.8-0.7-0.7-1.2l0.6-2l-4.5-1.3l-0.6,2c-0.2,0.5-0.7,0.8-1.2,0.7c-0.5-0.1-0.8-0.7-0.7-1.2l0.6-2l-3.2-0.9c-0.5-0.2-0.8-0.7-0.7-1.2c0.1-0.5,0.7-0.8,1.2-0.7l3.2,0.9l1.3-4.4c0.2-0.5,0.7-0.8,1.2-0.7c0.5,0.2,0.8,0.7,0.7,1.2L33,76.7l4.5,1.3l0.2-0.7c0.2-0.5,0.7-0.8,1.2-0.7c0.5,0.2,0.8,0.7,0.7,1.2L38.3,82.4z"/>
<polygon points="58.7,52.5 54.2,51.2 52.9,55.9 57.4,57.2"/>
<rect x="55.3" y="45.2" transform="matrix(-0.9615 -0.2748 0.2748 -0.9615 100.0651 109.2756)" width="4.7" height="4.8"/>
<polygon points="56.8,59.1 52.3,57.8 51,62.5 55.5,63.7"/>
<rect x="50.8" y="36.8" transform="matrix(-0.9614 -0.2752 0.2752 -0.9614 93.4526 91.5566)" width="4.7" height="4.8"/>
<rect x="48.9" y="43.4" transform="matrix(-0.9614 -0.275 0.275 -0.9614 87.9545 103.9192)" width="4.7" height="4.8"/>
<polygon points="62.5,39.4 58,38.1 56.6,42.7 61.2,44"/>
<polygon points="68.9,41.2 64.4,39.9 63.1,44.6 67.6,45.9"/>
<rect x="61.8" y="47" transform="matrix(-0.9615 -0.2747 0.2747 -0.9615 112.1637 114.637)" width="4.7" height="4.8"/>
<rect x="59.9" y="53.6" transform="matrix(-0.9615 -0.2747 0.2747 -0.9615 106.6608 127.0102)" width="4.7" height="4.8"/>
<polygon points="63.3,60.9 58.8,59.6 57.4,64.3 61.9,65.6"/>
<polygon points="47.8,42.3 43.3,41 41.9,45.6 46.4,46.9"/>
<rect x="31.5" y="31.3" transform="matrix(-0.9614 -0.275 0.275 -0.9614 57.1977 75.444)" width="4.7" height="4.8"/>
<rect x="25.1" y="29.5" transform="matrix(-0.9614 -0.2751 0.2751 -0.9614 45.1062 70.0868)" width="4.7" height="4.8"/>
<path d="M90.9,25.7c-7.1-2-11.4-0.8-11.6-0.8c-0.3,0.1-0.6,0.4-0.7,0.7l-3.4,11.9L22.3,22.4c-0.5-0.2-1.1,0.2-1.2,0.7l-2.7,9.5l-2.9-3.2c-0.3-0.3-0.7-0.4-1.1-0.3c-0.4,0.1-0.6,0.5-0.7,0.9l-1.4,23.4L3.2,85.4c-0.1,0.5,0.2,1.1,0.7,1.2l6.4,1.8L10,94.7c0,0.5,0.3,0.9,0.7,1c0.1,0,0.1,0,0.2,0L42,97.5l26.1,7.5c11.4,3.2,13-2.6,13.9-5.7L97.6,45l2.3-8C101.1,33.1,98,27.8,90.9,25.7zM24.2,27.4c0.2-0.5,0.7-0.8,1.2-0.7l44.9,12.9c0.5,0.2,0.8,0.7,0.7,1.2l-10,35c-0.2,0.5-0.7,0.8-1.2,0.7c-0.5-0.2-0.8-0.7-0.7-1.2l2.2-7.7l-4.5-1.3l-1.1,3.9c-0.2,0.5-0.7,0.8-1.2,0.7c-0.5-0.2-0.8-0.7-0.7-1.2l1.1-3.9l-5.5-1.6c-0.5-0.2-0.8-0.7-0.7-1.2l1.6-5.6L45.9,56l-0.8,2.7c-0.2,0.5-0.7,0.8-1.2,0.7s-0.8-0.7-0.7-1.2l0.8-2.7l-5.5-1.6c-0.5-0.2-0.8-0.7-0.7-1.2l1.6-5.6l-4.5-1.3l-0.5,1.8c-0.2,0.5-0.7,0.8-1.2,0.7c-0.5-0.2-0.8-0.7-0.7-1.2l2.4-8.3l-4.5-1.3l-1.3,4.5c-0.2,0.5-0.7,0.8-1.2,0.7c-0.5-0.2-0.8-0.7-0.7-1.2l1.3-4.5l-5.3-1.5c-0.1,0-0.1,0-0.2,0c-0.5-0.2-0.8-0.7-0.7-1.2L24.2,27.4z M10.3,83.2c-0.1,0.5-0.7,0.8-1.2,0.7c-0.5-0.2-0.8-0.7-0.7-1.2l1.1-3.8c0.2-0.5,0.7-0.8,1.2-0.7c0.5,0.1,0.8,0.7,0.7,1.2L10.3,83.2z M12,93.8l3.6-61.3l7.5,8.2l-2.2,2c-0.4,0.4-0.4,1-0.1,1.4c0.1,0.1,0.3,0.2,0.5,0.3c0.3,0.1,0.7,0,0.9-0.2l2.2-2l2.5,2.8l-2.2,2c-0.4,0.4-0.4,1-0.1,1.4c0.1,0.1,0.3,0.2,0.5,0.3c0.3,0.1,0.7,0,0.9-0.2l2.3-2l2.5,2.8l-2.2,2c-0.4,0.4-0.4,1-0.1,1.4c0.1,0.1,0.3,0.2,0.5,0.3c0.3,0.1,0.7,0,0.9-0.2l2.3-2l2.5,2.8l-2.3,2c-0.4,0.4-0.4,1-0.1,1.4c0.1,0.1,0.3,0.2,0.5,0.3c0.3,0.1,0.7,0,0.9-0.2l2.3-2l2.5,2.8l-2.3,2c-0.4,0.4-0.4,1-0.1,1.4c0.1,0.1,0.3,0.2,0.5,0.3c0.3,0.1,0.7,0,0.9-0.2l2.3-2l2.5,2.8l-2.3,2c-0.4,0.4-0.4,1-0.1,1.4c0.1,0.1,0.3,0.2,0.5,0.3c0.3,0.1,0.7,0,0.9-0.2l2.3-2.1l2.5,2.8l-2.3,2c-0.4,0.4-0.4,1-0.1,1.4c0.1,0.1,0.3,0.2,0.5,0.3c0.3,0.1,0.7,0,0.9-0.2l2.3-2.1l2.5,2.8L48,72.3c-0.4,0.4-0.4,1-0.1,1.4c0.1,0.1,0.3,0.2,0.5,0.3c0.3,0.1,0.7,0,0.9-0.2l2.3-2.1l2.5,2.8l-2.3,2.1c-0.4,0.4-0.4,1-0.1,1.4c0.1,0.1,0.3,0.2,0.5,0.3c0.3,0.1,0.7,0,0.9-0.2l2.3-2.1l2.5,2.8l-2.3,2.1c-0.4,0.4-0.4,1-0.1,1.4c0.1,0.1,0.3,0.2,0.5,0.3c0.3,0.1,0.7,0,0.9-0.2l2.3-2.1l2.7,2.9l-1.4,4.8c-0.1,0.3,0,0.7,0.3,1c0.3,0.3,0.6,0.4,1,0.2c0,0,2-0.5,5.5-0.2l7.8,8.5L12,93.8z M81.4,94.2c-1.3-2.6-4.1-5-8.4-6.2c-4.6-1.3-8-1.3-9.9-1.1l17.3-60.2c1.3-0.2,4.8-0.6,10,0.9c6.5,1.9,8.4,6.3,7.7,8.8L81.4,94.2z"/>
<rect x="36.1" y="39.7" transform="matrix(-0.9615 -0.2747 0.2747 -0.9615 63.7943 93.1789)" width="4.7" height="4.9"/>
<polygon points="43.2,33.9 38.7,32.6 37.4,37.2 41.9,38.5"/>
<polygon points="49.7,35.7 45.1,34.4 43.8,39.1 48.3,40.4"/>
<polygon points="52.3,50.7 47.8,49.4 46.5,54 51,55.3"/>
<rect x="40.6" y="48.1" transform="matrix(-0.9615 -0.2748 0.2748 -0.9615 70.3769 110.9237)" width="4.7" height="4.8"/>
</g>

</svg>