<?xml version="1.0"?>
<!DOCTYPE svg PUBLIC "-//W3C//DTD SVG 1.1//EN" "http://www.w3.org/Graphics/SVG/1.1/DTD/svg11.dtd">
<svg version="1.1" xmlns="http://www.w3.org/2000/svg" width="406px" height="190px" viewBox="0 0 598 280">
<defs>
<style type="text/css"><![CDATA[
#yellow path	{ fill: #ffe400; }
#white path	{ fill: #eeeeee; }
]]></style>
</defs>
<g id="white">
<path fill="none" d="M93,45.9c0-0.4-0.4-0.8-0.8-0.8h-3.4c-0.4,0-0.8,0.4-0.8,0.8v1.5l5,3.9V45.9z"/>
<path fill="none" d="M55.1,76.5h-1.2c-0.2,0-0.3,0.1-0.3,0.3v0.9c0,0.2,0.1,0.3,0.3,0.3h1.2c0.2,0,0.3-0.1,0.3-0.3v-0.9C55.4,76.7,55.3,76.5,55.1,76.5z"/>
<path fill="none" d="M57.7,76.5h-1.2c-0.2,0-0.3,0.1-0.3,0.3v0.9c0,0.2,0.1,0.3,0.3,0.3h1.2c0.2,0,0.3-0.1,0.3-0.3v-0.9C58,76.7,57.9,76.5,57.7,76.5z"/>
<path fill="none" d="M60.3,76.5h-1.2c-0.2,0-0.3,0.1-0.3,0.3v0.9c0,0.2,0.1,0.3,0.3,0.3h1.2c0.2,0,0.3-0.1,0.3-0.3v-0.9C60.6,76.7,60.5,76.5,60.3,76.5z"/>
<path fill="none" d="M62.9,76.5h-1.2c-0.2,0-0.3,0.1-0.3,0.3v0.9c0,0.2,0.1,0.3,0.3,0.3h1.2c0.2,0,0.3-0.1,0.3-0.3v-0.9C63.2,76.7,63,76.5,62.9,76.5z"/>
<path fill="none" d="M115.4,84.5h-3v-10h2.2c0.3,0,0.5-0.4,0.2-0.6l-9.6-6.9c-0.6-0.4-1.1-0.6-1.9-0.6c-0.8,0-1.8,0.7-1.8,0.7h-1.6v-4.1h4.8c0.5,0,0.7-0.6,0.3-0.9l-0.9-0.6l-9.7-7.5v0l-12.2-9.4c-0.8-0.5-1.8-0.5-2.6,0L58,61.3l-0.9,0.6c-0.4,0.3-0.2,0.9,0.3,0.9h4.8V67h-1.9c0,0-0.9-0.7-1.9-0.7c-1,0-1.3,0.4-1.9,0.7l-9.7,7c-0.2,0.1-0.2,0.5,0.1,0.5h2.7v10h-2.9c-0.4,0-0.8,0.4-0.8,0.8v0.4c0,0.4,0.4,0.8,0.8,0.8h68.6c0.4,0,0.8-0.4,0.8-0.8v-0.4C116.2,84.8,115.9,84.5,115.4,84.5z M82.4,58.2l5.6-4.4c0.2-0.2,0.5-0.2,0.7,0l5.6,4.4c0.1,0.1,0,0.3-0.1,0.3h-1.4l-4.4-3.3l-4.4,3.3h-1.4C82.3,58.5,82.3,58.3,82.4,58.2z M91.1,61.4h-1.9c-0.3,0-0.5-0.2-0.5-0.5v-1.3c0-0.3,0.2-0.5,0.5-0.5h1.9c0.3,0,0.5,0.2,0.5,0.5V61C91.5,61.2,91.3,61.4,91.1,61.4z M91.5,62.6V64c0,0.3-0.2,0.5-0.5,0.5h-1.9c-0.3,0-0.5-0.2-0.5-0.5v-1.3c0-0.3,0.2-0.5,0.5-0.5h1.9C91.3,62.1,91.5,62.4,91.5,62.6z M87.5,61.4h-1.9c-0.3,0-0.5-0.2-0.5-0.5v-1.3c0-0.3,0.2-0.5,0.5-0.5h1.9c0.3,0,0.5,0.2,0.5,0.5V61C88,61.2,87.8,61.4,87.5,61.4z M88,62.6V64c0,0.3-0.2,0.5-0.5,0.5h-1.9c-0.3,0-0.5-0.2-0.5-0.5v-1.3c0-0.3,0.2-0.5,0.5-0.5h1.9C87.8,62.1,88,62.4,88,62.6z M68,58.2l5.6-4.4c0.2-0.2,0.5-0.2,0.7,0l5.6,4.4c0.1,0.1,0,0.3-0.1,0.3h-1.4l-4.4-3.3l-4.4,3.3h-1.4C67.9,58.5,67.9,58.3,68,58.2z M76.7,61.4h-1.9c-0.3,0-0.5-0.2-0.5-0.5v-1.3c0-0.3,0.2-0.5,0.5-0.5h1.9c0.3,0,0.5,0.2,0.5,0.5V61C77.1,61.2,76.9,61.4,76.7,61.4z M77.1,62.6V64c0,0.3-0.2,0.5-0.5,0.5h-1.9c-0.3,0-0.5-0.2-0.5-0.5v-1.3c0-0.3,0.2-0.5,0.5-0.5h1.9C76.9,62.1,77.1,62.4,77.1,62.6z M73.1,61.4h-1.9c-0.3,0-0.5-0.2-0.5-0.5v-1.3c0-0.3,0.2-0.5,0.5-0.5h1.9c0.3,0,0.5,0.2,0.5,0.5V61C73.6,61.2,73.4,61.4,73.1,61.4z M73.6,62.6V64c0,0.3-0.2,0.5-0.5,0.5h-1.9c-0.3,0-0.5-0.2-0.5-0.5v-1.3c0-0.3,0.2-0.5,0.5-0.5h1.9C73.4,62.1,73.6,62.4,73.6,62.6z M52.4,84.5c0-2.6,0-5.3,0-7.9c0.9-1,2.1-1.7,3.3-2.1c0.7-0.2,1.5-0.4,2.2-0.4c0.3,0,0.5,0,0.8,0c0.8,0,1.5,0.2,2.2,0.4c1.2,0.4,2.3,1.1,3.3,2.1c0,2.6,0,5.3,0,7.9H52.4z M65,74.4h-1.6l-5-3.4l-5,3.4h-1.6c-0.2,0-0.3-0.2-0.1-0.4l6.4-4.7c0.2-0.2,0.6-0.2,0.8,0l6.4,4.7C65.3,74.2,65.2,74.4,65,74.4z M71.2,80.7c0,0.3-0.2,0.5-0.5,0.5h-2.2c-0.3,0-0.5-0.2-0.5-0.5v-1.5c0-0.3,0.2-0.5,0.5-0.5h2.2c0.3,0,0.5,0.2,0.5,0.5V80.7z M71.2,77.3c0,0.3-0.2,0.5-0.5,0.5h-2.2c-0.3,0-0.5-0.2-0.5-0.5v-1.5c0-0.3,0.2-0.5,0.5-0.5h2.2c0.3,0,0.5,0.2,0.5,0.5V77.3z M75.2,80.7c0,0.3-0.2,0.5-0.5,0.5h-2.2c-0.3,0-0.5-0.2-0.5-0.5v-1.5c0-0.3,0.2-0.5,0.5-0.5h2.2c0.3,0,0.5,0.2,0.5,0.5V80.7z M75.2,77.3c0,0.3-0.2,0.5-0.5,0.5h-2.2c-0.3,0-0.5-0.2-0.5-0.5v-1.5c0-0.3,0.2-0.5,0.5-0.5h2.2c0.3,0,0.5,0.2,0.5,0.5V77.3z M82.8,80.7c0,0.3-0.2,0.5-0.5,0.5H80c-0.3,0-0.5-0.2-0.5-0.5v-1.5c0-0.3,0.2-0.5,0.5-0.5h2.2c0.3,0,0.5,0.2,0.5,0.5V80.7z M82.8,77.3c0,0.3-0.2,0.5-0.5,0.5H80c-0.3,0-0.5-0.2-0.5-0.5v-1.5c0-0.3,0.2-0.5,0.5-0.5h2.2c0.3,0,0.5,0.2,0.5,0.5V77.3z M86.8,80.7c0,0.3-0.2,0.5-0.5,0.5h-2.2c-0.3,0-0.5-0.2-0.5-0.5v-1.5c0-0.3,0.2-0.5,0.5-0.5h2.2c0.3,0,0.5,0.2,0.5,0.5V80.7z M86.8,77.3c0,0.3-0.2,0.5-0.5,0.5h-2.2c-0.3,0-0.5-0.2-0.5-0.5v-1.5c0-0.3,0.2-0.5,0.5-0.5h2.2c0.3,0,0.5,0.2,0.5,0.5V77.3z M95.1,84.5h-4.7c0-2.7,0-5.4,0-8.1c1.3-1.3,3.4-1.3,4.7,0C95.1,79.1,95.1,81.8,95.1,84.5z M103.6,80.7c0,0.3-0.2,0.5-0.5,0.5h-2.2c-0.3,0-0.5-0.2-0.5-0.5v-1.5c0-0.3,0.2-0.5,0.5-0.5h2.2c0.3,0,0.5,0.2,0.5,0.5V80.7z M103.6,77.3c0,0.3-0.2,0.5-0.5,0.5h-2.2c-0.3,0-0.5-0.2-0.5-0.5v-1.5c0-0.3,0.2-0.5,0.5-0.5h2.2c0.3,0,0.5,0.2,0.5,0.5V77.3z M107.6,80.7c0,0.3-0.2,0.5-0.5,0.5h-2.2c-0.3,0-0.5-0.2-0.5-0.5v-1.5c0-0.3,0.2-0.5,0.5-0.5h2.2c0.3,0,0.5,0.2,0.5,0.5V80.7z M107.6,77.3c0,0.3-0.2,0.5-0.5,0.5h-2.2c-0.3,0-0.5-0.2-0.5-0.5v-1.5c0-0.3,0.2-0.5,0.5-0.5h2.2c0.3,0,0.5,0.2,0.5,0.5V77.3z M110.6,74.4H109l-5-3.4l-5,3.4h-1.6c-0.2,0-0.3-0.2-0.1-0.4l6.4-4.7c0.2-0.2,0.5-0.2,0.8,0l6.4,4.7C110.8,74.2,110.8,74.4,110.6,74.4z"/>
<path fill="none" d="M380.5,79.9h9.3v5.2h-9.3V79.9z"/>
<path fill="none" d="M394.2,79.9h9.3v5.2h-9.3V79.9z"/>
<path fill="none" d="M380.5,79.5h22.9V46.3h-22.9V79.5z M396.7,48.6h4.4V54h-4.4V48.6z M396.7,55.7h4.4v5.4h-4.4V55.7z M396.7,63h4.4v5.4h-4.4V63z M396.7,70.9h4.4v5.4h-4.4V70.9z M389.8,48.6h4.4V54h-4.4V48.6z M389.8,55.7h4.4v5.4h-4.4V55.7z M389.8,63h4.4v5.4h-4.4V63z M389.8,70.9h4.4v5.4h-4.4V70.9z M383,48.6h4.4V54H383V48.6z M383,55.7h4.4v5.4H383V55.7z M383,63h4.4v5.4H383V63z M383,70.9h4.4v5.4H383V70.9z"/>
<path fill="none" d="M400.6,42.9v-2.6h-7.9v2.6h-12.2V46h22.9v-3.1H400.6z"/>
<path fill="none" d="M354,79.9h9.3v5.2H354V79.9z"/>
<path fill="none" d="M367.6,79.9h9.3v5.2h-9.3V79.9z"/>
<path fill="none" d="M354,79.5h22.9V52.2H354V79.5z M370.2,55.7h4.4v5.4h-4.4V55.7z M370.2,63h4.4v5.4h-4.4V63z M370.2,70.9h4.4v5.4h-4.4V70.9z M363.3,55.7h4.4v5.4h-4.4V55.7z M363.3,63h4.4v5.4h-4.4V63z M363.3,70.9h4.4v5.4h-4.4V70.9z M356.5,55.7h4.4v5.4h-4.4V55.7z M356.5,63h4.4v5.4h-4.4V63z M356.5,70.9h4.4v5.4h-4.4V70.9z"/>
<path fill="none" d="M374.1,48.8v-2.6h-7.9v2.6H354v3.1h22.9v-3.1H374.1z"/>
</g>
<g id="yellow">
<path fill="none" d="M93,185.9c0-0.4-0.4-0.8-0.8-0.8h-3.4c-0.4,0-0.8,0.4-0.8,0.8v1.5l5,3.9V185.9z"/>
<path fill="none" d="M55.1,216.5h-1.2c-0.2,0-0.3,0.1-0.3,0.3v0.9c0,0.2,0.1,0.3,0.3,0.3h1.2c0.2,0,0.3-0.1,0.3-0.3v-0.9C55.4,216.7,55.3,216.5,55.1,216.5z"/>
<path fill="none" d="M57.7,216.5h-1.2c-0.2,0-0.3,0.1-0.3,0.3v0.9c0,0.2,0.1,0.3,0.3,0.3h1.2c0.2,0,0.3-0.1,0.3-0.3v-0.9C58,216.7,57.9,216.5,57.7,216.5z"/>
<path fill="none" d="M60.3,216.5h-1.2c-0.2,0-0.3,0.1-0.3,0.3v0.9c0,0.2,0.1,0.3,0.3,0.3h1.2c0.2,0,0.3-0.1,0.3-0.3v-0.9C60.6,216.7,60.5,216.5,60.3,216.5z"/>
<path fill="none" d="M62.9,216.5h-1.2c-0.2,0-0.3,0.1-0.3,0.3v0.9c0,0.2,0.1,0.3,0.3,0.3h1.2c0.2,0,0.3-0.1,0.3-0.3v-0.9C63.2,216.7,63,216.5,62.9,216.5z"/>
<path fill="none" d="M115.4,224.5h-3v-10h2.2c0.3,0,0.5-0.4,0.2-0.6l-9.6-6.9c-0.6-0.4-1.1-0.6-1.9-0.6c-0.8,0-1.8,0.7-1.8,0.7h-1.6v-4.1h4.8c0.5,0,0.7-0.6,0.3-0.9l-0.9-0.6l-9.7-7.5v0l-12.2-9.4c-0.8-0.5-1.8-0.5-2.6,0L58,201.3l-0.9,0.6c-0.4,0.3-0.2,0.9,0.3,0.9h4.8v4.1h-1.9c0,0-0.9-0.7-1.9-0.7c-1,0-1.3,0.4-1.9,0.7l-9.7,7c-0.2,0.1-0.2,0.5,0.1,0.5h2.7v10h-2.9c-0.4,0-0.8,0.4-0.8,0.8v0.4c0,0.4,0.4,0.8,0.8,0.8h68.6c0.4,0,0.8-0.4,0.8-0.8v-0.4C116.2,224.8,115.9,224.5,115.4,224.5z M82.4,198.2l5.6-4.4c0.2-0.2,0.5-0.2,0.7,0l5.6,4.4c0.1,0.1,0,0.3-0.1,0.3h-1.4l-4.4-3.3l-4.4,3.3h-1.4C82.3,198.5,82.3,198.3,82.4,198.2z M91.1,201.4h-1.9c-0.3,0-0.5-0.2-0.5-0.5v-1.3c0-0.3,0.2-0.5,0.5-0.5h1.9c0.3,0,0.5,0.2,0.5,0.5v1.3C91.5,201.2,91.3,201.4,91.1,201.4z M91.5,202.6v1.3c0,0.3-0.2,0.5-0.5,0.5h-1.9c-0.3,0-0.5-0.2-0.5-0.5v-1.3c0-0.3,0.2-0.5,0.5-0.5h1.9C91.3,202.1,91.5,202.4,91.5,202.6z M87.5,201.4h-1.9c-0.3,0-0.5-0.2-0.5-0.5v-1.3c0-0.3,0.2-0.5,0.5-0.5h1.9c0.3,0,0.5,0.2,0.5,0.5v1.3C88,201.2,87.8,201.4,87.5,201.4z M88,202.6v1.3c0,0.3-0.2,0.5-0.5,0.5h-1.9c-0.3,0-0.5-0.2-0.5-0.5v-1.3c0-0.3,0.2-0.5,0.5-0.5h1.9C87.8,202.1,88,202.4,88,202.6z M68,198.2l5.6-4.4c0.2-0.2,0.5-0.2,0.7,0l5.6,4.4c0.1,0.1,0,0.3-0.1,0.3h-1.4l-4.4-3.3l-4.4,3.3h-1.4C67.9,198.5,67.9,198.3,68,198.2z M76.7,201.4h-1.9c-0.3,0-0.5-0.2-0.5-0.5v-1.3c0-0.3,0.2-0.5,0.5-0.5h1.9c0.3,0,0.5,0.2,0.5,0.5v1.3C77.1,201.2,76.9,201.4,76.7,201.4z M77.1,202.6v1.3c0,0.3-0.2,0.5-0.5,0.5h-1.9c-0.3,0-0.5-0.2-0.5-0.5v-1.3c0-0.3,0.2-0.5,0.5-0.5h1.9C76.9,202.1,77.1,202.4,77.1,202.6z M73.1,201.4h-1.9c-0.3,0-0.5-0.2-0.5-0.5v-1.3c0-0.3,0.2-0.5,0.5-0.5h1.9c0.3,0,0.5,0.2,0.5,0.5v1.3C73.6,201.2,73.4,201.4,73.1,201.4z M73.6,202.6v1.3c0,0.3-0.2,0.5-0.5,0.5h-1.9c-0.3,0-0.5-0.2-0.5-0.5v-1.3c0-0.3,0.2-0.5,0.5-0.5h1.9C73.4,202.1,73.6,202.4,73.6,202.6z M52.4,224.5c0-2.6,0-5.3,0-7.9c0.9-1,2.1-1.7,3.3-2.1c0.7-0.2,1.5-0.4,2.2-0.4c0.3,0,0.5,0,0.8,0c0.8,0,1.5,0.2,2.2,0.4c1.2,0.4,2.3,1.1,3.3,2.1c0,2.6,0,5.3,0,7.9H52.4z M65,214.4h-1.6l-5-3.4l-5,3.4h-1.6c-0.2,0-0.3-0.2-0.1-0.4l6.4-4.7c0.2-0.2,0.6-0.2,0.8,0l6.4,4.7C65.3,214.2,65.2,214.4,65,214.4z M71.2,220.7c0,0.3-0.2,0.5-0.5,0.5h-2.2c-0.3,0-0.5-0.2-0.5-0.5v-1.5c0-0.3,0.2-0.5,0.5-0.5h2.2c0.3,0,0.5,0.2,0.5,0.5V220.7z M71.2,217.3c0,0.3-0.2,0.5-0.5,0.5h-2.2c-0.3,0-0.5-0.2-0.5-0.5v-1.5c0-0.3,0.2-0.5,0.5-0.5h2.2c0.3,0,0.5,0.2,0.5,0.5V217.3z M75.2,220.7c0,0.3-0.2,0.5-0.5,0.5h-2.2c-0.3,0-0.5-0.2-0.5-0.5v-1.5c0-0.3,0.2-0.5,0.5-0.5h2.2c0.3,0,0.5,0.2,0.5,0.5V220.7z M75.2,217.3c0,0.3-0.2,0.5-0.5,0.5h-2.2c-0.3,0-0.5-0.2-0.5-0.5v-1.5c0-0.3,0.2-0.5,0.5-0.5h2.2c0.3,0,0.5,0.2,0.5,0.5V217.3z M82.8,220.7c0,0.3-0.2,0.5-0.5,0.5H80c-0.3,0-0.5-0.2-0.5-0.5v-1.5c0-0.3,0.2-0.5,0.5-0.5h2.2c0.3,0,0.5,0.2,0.5,0.5V220.7z M82.8,217.3c0,0.3-0.2,0.5-0.5,0.5H80c-0.3,0-0.5-0.2-0.5-0.5v-1.5c0-0.3,0.2-0.5,0.5-0.5h2.2c0.3,0,0.5,0.2,0.5,0.5V217.3z M86.8,220.7c0,0.3-0.2,0.5-0.5,0.5h-2.2c-0.3,0-0.5-0.2-0.5-0.5v-1.5c0-0.3,0.2-0.5,0.5-0.5h2.2c0.3,0,0.5,0.2,0.5,0.5V220.7z M86.8,217.3c0,0.3-0.2,0.5-0.5,0.5h-2.2c-0.3,0-0.5-0.2-0.5-0.5v-1.5c0-0.3,0.2-0.5,0.5-0.5h2.2c0.3,0,0.5,0.2,0.5,0.5V217.3z M95.1,224.5h-4.7c0-2.7,0-5.4,0-8.1c1.3-1.3,3.4-1.3,4.7,0C95.1,219.1,95.1,221.8,95.1,224.5z M103.6,220.7c0,0.3-0.2,0.5-0.5,0.5h-2.2c-0.3,0-0.5-0.2-0.5-0.5v-1.5c0-0.3,0.2-0.5,0.5-0.5h2.2c0.3,0,0.5,0.2,0.5,0.5V220.7z M103.6,217.3c0,0.3-0.2,0.5-0.5,0.5h-2.2c-0.3,0-0.5-0.2-0.5-0.5v-1.5c0-0.3,0.2-0.5,0.5-0.5h2.2c0.3,0,0.5,0.2,0.5,0.5V217.3z M107.6,220.7c0,0.3-0.2,0.5-0.5,0.5h-2.2c-0.3,0-0.5-0.2-0.5-0.5v-1.5c0-0.3,0.2-0.5,0.5-0.5h2.2c0.3,0,0.5,0.2,0.5,0.5V220.7z M107.6,217.3c0,0.3-0.2,0.5-0.5,0.5h-2.2c-0.3,0-0.5-0.2-0.5-0.5v-1.5c0-0.3,0.2-0.5,0.5-0.5h2.2c0.3,0,0.5,0.2,0.5,0.5V217.3z M110.6,214.4H109l-5-3.4l-5,3.4h-1.6c-0.2,0-0.3-0.2-0.1-0.4l6.4-4.7c0.2-0.2,0.5-0.2,0.8,0l6.4,4.7C110.8,214.2,110.8,214.4,110.6,214.4z"/>
<path fill="none" d="M380.5,219.9h9.3v5.2h-9.3V219.9z"/>
<path fill="none" d="M394.2,219.9h9.3v5.2h-9.3V219.9z"/>
<path fill="none" d="M380.5,219.5h22.9v-33.2h-22.9V219.5z M396.7,188.6h4.4v5.4h-4.4V188.6z M396.7,195.7h4.4v5.4h-4.4V195.7z M396.7,203h4.4v5.4h-4.4V203z M396.7,210.9h4.4v5.4h-4.4V210.9z M389.8,188.6h4.4v5.4h-4.4V188.6z M389.8,195.7h4.4v5.4h-4.4V195.7z M389.8,203h4.4v5.4h-4.4V203z M389.8,210.9h4.4v5.4h-4.4V210.9z M383,188.6h4.4v5.4H383V188.6z M383,195.7h4.4v5.4H383V195.7z M383,203h4.4v5.4H383V203z M383,210.9h4.4v5.4H383V210.9z"/>
<path fill="none" d="M400.6,182.9v-2.6h-7.9v2.6h-12.2v3.1h22.9v-3.1H400.6z"/>
<path fill="none" d="M354,219.9h9.3v5.2H354V219.9z"/>
<path fill="none" d="M367.6,219.9h9.3v5.2h-9.3V219.9z"/>
<path fill="none" d="M354,219.5h22.9v-27.3H354V219.5z M370.2,195.7h4.4v5.4h-4.4V195.7z M370.2,203h4.4v5.4h-4.4V203z M370.2,210.9h4.4v5.4h-4.4V210.9z M363.3,195.7h4.4v5.4h-4.4V195.7z M363.3,203h4.4v5.4h-4.4V203z M363.3,210.9h4.4v5.4h-4.4V210.9z M356.5,195.7h4.4v5.4h-4.4V195.7z M356.5,203h4.4v5.4h-4.4V203z M356.5,210.9h4.4v5.4h-4.4V210.9z"/>
<path fill="none" d="M374.1,188.8v-2.6h-7.9v2.6H354v3.1h22.9v-3.1H374.1z"/>
</g>
<g id="selector">
<path fill="#eee" d="M160,280 l 20,-20 20,20z"/>
<path fill="#eee" d="M460,280 l 20,-20 20,20z"/>
</g>
</svg>
