<?xml version="1.0"?>
<!DOCTYPE svg PUBLIC "-//W3C//DTD SVG 1.1//EN" "http://www.w3.org/Graphics/SVG/1.1/DTD/svg11.dtd">
<svg version="1.1" xmlns="http://www.w3.org/2000/svg" width="16px" height="23px" viewBox="0 0 16 23.3">
<path d="m 9,7.4 c 0,1.9 -0.4,2.7 -0.9,2.7 -0.5,0 -1,-0.8 -1,-2.7 0,-1.9 0.5,-2.6 1,-2.6 0.5,-0.1 0.9,0.7 0.9,2.6 z" style="fill:#000"/>
<path d="m 7.6,3.0 v -2.9 h -1.2 c -3.1,0 -6.3,1.9 -6.3,6.3 v 0.6 h 5.9 c 0,-3.6 0.6,-3.9 1.6,-4 z" style="fill:#000"/>
<path d="m 10.1,8.1 c -0.1,2.4 -1.1,4.2 -2,4.2 -0.9,0 -2,-1.8 -2.1,-4.2 h -5.9 v 8.6 c 0,3.5 2.7,6.4 6.1,6.4 h 3.5 c 3.9,0 6.3,-2.5 6.3,-6.4 v -8.7 h -5.9 z" style="fill:#000"/>
<path d="m 8.5,3.0 v -2.9 h 1.3 c 3.8,0 6.3,2.6 6.3,6.3 v 0.6 h -5.9 c 0,-3.6 -0.7,-3.9 -1.7,-4 z" style="fill:#000"/>
</svg>