<?xml version="1.0"?>
<!DOCTYPE svg PUBLIC "-//W3C//DTD SVG 1.1//EN" "http://www.w3.org/Graphics/SVG/1.1/DTD/svg11.dtd">
<svg version="1.1" xmlns="http://www.w3.org/2000/svg" width="44px" height="60px" viewBox="0 0 150 200">
<path fill="#ffe400" d="m 43,0 2,57 C 33,63.5 31,72 37,85 l 30,57 c 8,14.5 15,12.5 26,9 l 46,35 c -15.3,9.5 -19,18 -45,14 C 68,196 24.5,145 14,120 4,95 1,68 0,41 0,31 2,20 9,13 19,4.5 31.5,0 43,0 z" />
<path fill="#ffe400" d="m 49,0 c 6,0 13,3 15.5,8 2,14 2,28 0,41 -2,5 -8,9 -14,8" />
<path fill="#ffe400" d="m 98,146 c 0,0 7,-4.5 11,-6 4,-1.5 7,1 9.5,2.5 L 142,161 c 3.5,3 7,5 7,9.5 0,5 -3,9 -4,13.5" />
</svg>