<?xml version="1.0"?>
<!DOCTYPE svg PUBLIC "-//W3C//DTD SVG 1.1//EN" "http://www.w3.org/Graphics/SVG/1.1/DTD/svg11.dtd">
<svg version="1.1" xmlns="http://www.w3.org/2000/svg" width="37px" height="50px" viewBox="0 0 37 50">
<path fill="#ed1c24" d="M0,0h35v50h-35Z"/>
<path fill="#f14950" d="M35,0h2v50h-2Z"/>
<path fill="#fff" d="M19,18v5h5l-1.5,-1.5l3,-3l-2,-2l-3,3Z"/>

<path fill="#fff" d="m 14,16 c 0,0 1.2,0 1.6,0.5 l 0.77,3.6 c -0.136,0.526 -1.1,1.1 -1.1,1.1 z"/>
<path fill="#fff" d="m 21.9,27.6 c 0.3,-0.1 .63,0 .9,.16 l 2.7,1.3 c 0.3,0.1 .53,.38 0.5,0.7 l -.12,1.2 -5,-2.55 z"/>
<path fill="#fff" d="m 10.5,18 c .6,-1 1.7,-1.6 2.85,-1.9 l 1.2,5.25 c -.9,.77 -.9,1.8 -.2,2.65 l 3.6,4.4 c .9,.9 1.55,1.4 2.635,.466 l 4.843,2.46 c -1.2,1.1 -2.4,2.05 -3.95,2 -3.36,.054 -6.45,-2.7 -8.2,-5.2 -1.5,-2.3 -4.2,-7.8 -2.8,-10 z"/>
</svg>
